<?xml version="1.0" encoding="utf-8"?>
<!-- Generator: Adobe Illustrator 26.3.1, SVG Export Plug-In . SVG Version: 6.00 Build 0)  -->
<svg version="1.1" baseProfile="basic" id="Layer_1"
	 xmlns="http://www.w3.org/2000/svg" xmlns:xlink="http://www.w3.org/1999/xlink" x="0px" y="0px" viewBox="0 0 232 334"
	 xml:space="preserve">
<image overflow="visible" width="1918" height="958" xlink:href="D882084F.jpg"  transform="matrix(0.6923 0 0 0.6923 667.4681 -25.4149)">
</image>
<path fill="#4D4D4D" fill-opacity="0.3" d="M901.5,340.6h-208c-6.6,0-12-5.4-12-12v-310c0-6.6,5.4-12,12-12h208c6.6,0,12,5.4,12,12
	v310C913.5,335.2,908.1,340.6,901.5,340.6z"/>
<path fill="#4D4D4D" fill-opacity="0.41" d="M881.5,333.6h-182c-6.6,0-12-5.4-12-12v-85c0-6.6,5.4-12,12-12h182c6.6,0,12,5.4,12,12
	v85C893.5,328.2,888.1,333.6,881.5,333.6z"/>
<path fill="#4D4D4D" fill-opacity="0.41" d="M877.5,329.6h-169c-6.6,0-12-5.4-12-12v-54c0-6.6,5.4-12,12-12h169c6.6,0,12,5.4,12,12
	v54C889.5,324.2,884.1,329.6,877.5,329.6z"/>
<path fill="#4D4D4D" fill-opacity="0.41" d="M873.5,325.6h-157c-6.6,0-12-5.4-12-12v0c0-6.6,5.4-12,12-12h157c6.6,0,12,5.4,12,12v0
	C885.5,320.2,880.1,325.6,873.5,325.6z"/>
<rect x="-36.5" y="-168.4" fill="#FFFFFF" width="93" height="93"/>
<path fill="#FFFFFF" d="M163.5-455.4h-63c-6.6,0-12-5.4-12-12v-63c0-6.6,5.4-12,12-12h63c6.6,0,12,5.4,12,12v63
	C175.5-460.8,170.1-455.4,163.5-455.4z"/>
<text transform="matrix(1 0 0 1 99.64 -468.2899)" font-family="'MajorMonoDisplay-Regular'" font-size="86.2332px">I</text>
<text transform="matrix(1 0 0 1 663.699 -547.6498)" font-family="'MajorMonoDisplay-Regular'" font-size="54.5918px">=*^%$#@!SKv+</text>
<path fill="#F2F2F2" fill-opacity="0.87" stroke="#4D4D4D" stroke-miterlimit="10" stroke-opacity="0.35" d="M881.5,37.1h-182
	c-6.6,0-12-5.4-12-12v0c0-6.6,5.4-12,12-12h182c6.6,0,12,5.4,12,12v0C893.5,31.7,888.1,37.1,881.5,37.1z"/>
<text transform="matrix(1 0 0 1 695.6776 29.5962)" fill="#4D4D4D" font-family="'MajorMonoDisplay-Regular'" font-size="12px">Sketch Kit</text>
<path fill="#4D4D4D" fill-opacity="0.24" d="M917.5-95.4h-182c-6.6,0-12-5.4-12-12v-5c0-6.6,5.4-12,12-12h182c6.6,0,12,5.4,12,12v5
	C929.5-100.8,924.1-95.4,917.5-95.4z"/>
<text transform="matrix(1 0 0 1 855.9479 116.1645)" fill="#4D4D4D" font-family="'MajorMonoDisplay-Regular'" font-size="10px">-2020</text>
<circle fill="#AE867D" stroke="#4D4D4D" stroke-miterlimit="10" cx="881.5" cy="24.6" r="3"/>
<circle fill="#3A6361" cx="866" cy="24.8" r="3.2"/>
<path fill="#4D4D4D" fill-opacity="0.41" d="M881.5,98.6h-182c-6.6,0-12-5.4-12-12v-30c0-6.6,5.4-12,12-12h182c6.6,0,12,5.4,12,12
	v30C893.5,93.2,888.1,98.6,881.5,98.6z"/>
<text transform="matrix(1 0 0 1 695.6776 61.0963)" fill="#F2F2F2" font-family="'MajorMonoDisplay-Regular'" font-size="12px">Sketch Kit</text>
<path fill="#4D4D4D" fill-opacity="0.41" d="M878.5,95.6h-170c-6.6,0-12-5.4-12-12v0c0-6.6,5.4-12,12-12h170c6.6,0,12,5.4,12,12v0
	C890.5,90.2,885.1,95.6,878.5,95.6z"/>
<text transform="matrix(1 0 0 1 704.6776 88.0963)" fill="#F2F2F2" font-family="'MajorMonoDisplay-Regular'" font-size="12px">Sketch Kit</text>
<rect x="683.5" y="-444.4" fill="#3A6361" width="127" height="119"/>
<rect x="833.5" y="-444.4" fill="#E8ACC8" width="127" height="119"/>
<rect x="977.5" y="-445.4" fill="#36588A" width="127" height="119"/>
<rect x="1120.5" y="-445.4" fill="#BC9249" width="127" height="119"/>
<rect x="1260.5" y="-445.4" fill="#83838E" width="127" height="119"/>
<rect x="1400.5" y="-445.4" fill="#7A3C45" width="127" height="119"/>
<rect x="1537.5" y="-444.4" fill="#B86455" width="127" height="119"/>
<rect x="1674.5" y="-444.4" fill="#AE867D" width="127" height="119"/>
<path fill="#4D4D4D" d="M902.5,258.6L902.5,258.6c-1.1,0-2-0.9-2-2v-239c0-1.1,0.9-2,2-2l0,0c1.1,0,2,0.9,2,2v239
	C904.5,257.7,903.6,258.6,902.5,258.6z"/>
<path fill="#4D4D4D" fill-opacity="0.41" d="M881.5,177.6h-182c-6.6,0-12-5.4-12-12v-30c0-6.6,5.4-12,12-12h182c6.6,0,12,5.4,12,12
	v30C893.5,172.2,888.1,177.6,881.5,177.6z"/>
<text transform="matrix(1 0 0 1 695.6776 140.0963)" fill="#F2F2F2" font-family="'MajorMonoDisplay-Regular'" font-size="12px">Sketch Kit</text>
<path fill="#4D4D4D" fill-opacity="0.41" d="M878.5,174.6h-170c-6.6,0-12-5.4-12-12v0c0-6.6,5.4-12,12-12h170c6.6,0,12,5.4,12,12v0
	C890.5,169.2,885.1,174.6,878.5,174.6z"/>
<text transform="matrix(1 0 0 1 704.6776 167.0963)" fill="#F2F2F2" font-family="'MajorMonoDisplay-Regular'" font-size="12px">Sketch Kit</text>
<text transform="matrix(1 0 0 1 855.6011 197.6751)" fill="#4D4D4D" font-family="'MajorMonoDisplay-Regular'" font-size="10px">+2021</text>
<line opacity="0.39" fill="#4D4D4D" stroke="#000000" stroke-width="0.5" stroke-miterlimit="10" x1="687.5" y1="200.6" x2="890.5" y2="200.6"/>
<line opacity="0.39" fill="#4D4D4D" stroke="#000000" stroke-width="0.5" stroke-miterlimit="10" x1="689.5" y1="119.1" x2="892.5" y2="119.1"/>
<text transform="matrix(1 0 0 1 855.6011 217.1751)" fill="#4D4D4D" font-family="'MajorMonoDisplay-Regular'" font-size="10px">+2022</text>
<line opacity="0.39" fill="#4D4D4D" stroke="#000000" stroke-width="0.5" stroke-miterlimit="10" x1="687.5" y1="221.1" x2="890.5" y2="221.1"/>
<circle fill="#E8ACC8" cx="879.5" cy="57.6" r="4"/>
<circle fill="#E8ACC8" cx="878.5" cy="83.6" r="4"/>
<text transform="matrix(1 0 0 1 695.6776 241.0963)" fill="#F2F2F2" font-family="'MajorMonoDisplay-Regular'" font-size="12px">Sketch Kit</text>
<text transform="matrix(1 0 0 1 704.6776 268.0963)" fill="#F2F2F2" font-family="'MajorMonoDisplay-Regular'" font-size="12px">Sketch Kit</text>
<text transform="matrix(1 0 0 1 704.1182 293.3348)" fill="#F2F2F2" font-family="'MajorMonoDisplay-Regular'" font-size="12px">Sketch Kit</text>
<text transform="matrix(1 0 0 1 713.1183 318.3351)" fill="#F2F2F2" font-family="'MajorMonoDisplay-Regular'" font-size="12px">Sketch Kit</text>
<path fill="#F2F2F2" fill-opacity="0.74" stroke="#AE867D" stroke-miterlimit="10" d="M943-83.9h-36c-4.4,0-8-3.6-8-8v0
	c0-4.4,3.6-8,8-8h36c4.4,0,8,3.6,8,8v0C951-87.5,947.4-83.9,943-83.9z"/>
<text transform="matrix(1 0 0 1 906.7469 -88.4922)" fill="#4D4D4D" font-family="'MajorMonoDisplay-Regular'" font-size="10px">WebGL</text>
<g>
	<path fill="#F2F2F2" stroke="#3A6361" stroke-miterlimit="10" d="M840,30.1h26.2c2.9,0,5.2-2.4,5.2-5.2v0c0-2.9-2.4-5.2-5.2-5.2
		H840V30.1z"/>
	
		<text transform="matrix(1 0 0 1 843.1043 27.0812)" fill="#4D4D4D" font-family="'MajorMonoDisplay-Regular'" font-size="6.5625px">WebGL</text>
</g>
<path fill="#4D4D4D" fill-opacity="0.3" d="M220,334H12c-6.6,0-12-5.4-12-12V12C0,5.4,5.4,0,12,0h208c6.6,0,12,5.4,12,12v310
	C232,328.6,226.6,334,220,334z"/>
<path fill="#4D4D4D" fill-opacity="0.41" d="M200,327H18c-6.6,0-12-5.4-12-12v-85c0-6.6,5.4-12,12-12h182c6.6,0,12,5.4,12,12v85
	C212,321.6,206.6,327,200,327z"/>
<path fill="#4D4D4D" fill-opacity="0.41" d="M196,323H27c-6.6,0-12-5.4-12-12v-54c0-6.6,5.4-12,12-12h169c6.6,0,12,5.4,12,12v54
	C208,317.6,202.6,323,196,323z"/>
<path fill="#4D4D4D" fill-opacity="0.41" d="M192,319H35c-6.6,0-12-5.4-12-12l0,0c0-6.6,5.4-12,12-12h157c6.6,0,12,5.4,12,12l0,0
	C204,313.6,198.6,319,192,319z"/>
<path fill="#F2F2F2" fill-opacity="0.87" stroke="#4D4D4D" stroke-miterlimit="10" stroke-opacity="0.35" d="M200,30.5H18
	c-6.6,0-12-5.4-12-12v0c0-6.6,5.4-12,12-12h182c6.6,0,12,5.4,12,12v0C212,25.1,206.6,30.5,200,30.5z"/>
<text transform="matrix(1 0 0 1 14.2095 23.0111)" fill="#4D4D4D" font-family="'MajorMonoDisplay-Regular'" font-size="12px">Sketch Kit</text>
<text transform="matrix(1 0 0 1 174.4799 109.5794)" fill="#4D4D4D" font-family="'MajorMonoDisplay-Regular'" font-size="10px">-2020</text>
<circle fill="#AE867D" cx="200" cy="18" r="3"/>
<circle fill="#3A6361" cx="184.5" cy="18.2" r="3.2"/>
<path fill="#4D4D4D" fill-opacity="0.41" d="M200,92H18c-6.6,0-12-5.4-12-12V50c0-6.6,5.4-12,12-12h182c6.6,0,12,5.4,12,12v30
	C212,86.6,206.6,92,200,92z"/>
<text transform="matrix(1 0 0 1 14.2095 54.5112)" fill="#F2F2F2" font-family="'MajorMonoDisplay-Regular'" font-size="12px">Sketch Kit</text>
<path fill="#4D4D4D" fill-opacity="0.41" d="M197,89H27c-6.6,0-12-5.4-12-12v0c0-6.6,5.4-12,12-12h170c6.6,0,12,5.4,12,12v0
	C209,83.6,203.6,89,197,89z"/>
<text transform="matrix(1 0 0 1 23.2095 81.5111)" fill="#F2F2F2" font-family="'MajorMonoDisplay-Regular'" font-size="12px">Sketch Kit</text>
<path fill="#4D4D4D" d="M221,252L221,252c-1.1,0-2-0.9-2-2V11c0-1.1,0.9-2,2-2l0,0c1.1,0,2,0.9,2,2v239C223,251.1,222.1,252,221,252
	z"/>
<path fill="#4D4D4D" fill-opacity="0.41" d="M200,171H18c-6.6,0-12-5.4-12-12v-30c0-6.6,5.4-12,12-12h182c6.6,0,12,5.4,12,12v30
	C212,165.6,206.6,171,200,171z"/>
<text transform="matrix(1 0 0 1 14.2095 133.5111)" fill="#F2F2F2" font-family="'MajorMonoDisplay-Regular'" font-size="12px">Sketch Kit</text>
<path fill="#4D4D4D" fill-opacity="0.41" d="M197,168H27c-6.6,0-12-5.4-12-12v0c0-6.6,5.4-12,12-12h170c6.6,0,12,5.4,12,12v0
	C209,162.6,203.6,168,197,168z"/>
<text transform="matrix(1 0 0 1 23.2095 160.5111)" fill="#F2F2F2" font-family="'MajorMonoDisplay-Regular'" font-size="12px">Sketch Kit</text>
<text transform="matrix(1 0 0 1 174.1331 191.09)" fill="#4D4D4D" font-family="'MajorMonoDisplay-Regular'" font-size="10px">+2021</text>
<line opacity="0.39" fill="#4D4D4D" stroke="#000000" stroke-width="0.5" stroke-miterlimit="10" x1="6" y1="194" x2="209" y2="194"/>
<line opacity="0.39" fill="#4D4D4D" stroke="#000000" stroke-width="0.5" stroke-miterlimit="10" x1="8" y1="112.5" x2="211" y2="112.5"/>
<text transform="matrix(1 0 0 1 174.1331 210.59)" fill="#4D4D4D" font-family="'MajorMonoDisplay-Regular'" font-size="10px">+2022</text>
<line opacity="0.39" fill="#4D4D4D" stroke="#000000" stroke-width="0.5" stroke-miterlimit="10" x1="6" y1="214.5" x2="209" y2="214.5"/>
<circle fill="#E8ACC8" cx="197.2" cy="51.8" r="3.2"/>
<circle fill="#E8ACC8" cx="196.2" cy="77.8" r="3.2"/>
<text transform="matrix(1 0 0 1 14.2095 234.5111)" fill="#F2F2F2" font-family="'MajorMonoDisplay-Regular'" font-size="12px">Sketch Kit</text>
<text transform="matrix(1 0 0 1 23.2095 261.5111)" fill="#F2F2F2" font-family="'MajorMonoDisplay-Regular'" font-size="12px">Sketch Kit</text>
<text transform="matrix(1 0 0 1 22.6501 286.7497)" fill="#F2F2F2" font-family="'MajorMonoDisplay-Regular'" font-size="12px">Sketch Kit</text>
<text transform="matrix(1 0 0 1 31.6502 311.7499)" fill="#F2F2F2" font-family="'MajorMonoDisplay-Regular'" font-size="12px">Sketch Kit</text>
<g>
	<path fill="#F2F2F2" stroke="#3A6361" stroke-miterlimit="10" d="M158.5,23.5h26.2c2.9,0,5.2-2.4,5.2-5.2v0c0-2.9-2.4-5.2-5.2-5.2
		h-26.2V23.5z"/>
	
		<text transform="matrix(1 0 0 1 161.6362 20.4961)" fill="#4D4D4D" font-family="'MajorMonoDisplay-Regular'" font-size="6.5625px">WebGL</text>
</g>
<rect x="65.5" y="6.6" fill="#4D4D4D" width="5" height="6"/>
<rect x="58.5" y="30.6" fill="#4D4D4D" width="5" height="8"/>
</svg>
