<?xml version="1.0" encoding="utf-8"?>
<!-- Generator: Adobe Illustrator 26.3.1, SVG Export Plug-In . SVG Version: 6.00 Build 0)  -->
<svg version="1.1" baseProfile="basic" id="Layer_1"
	 xmlns="http://www.w3.org/2000/svg" xmlns:xlink="http://www.w3.org/1999/xlink" x="0px" y="0px" viewBox="0 0 1327.7 663.2"
	 xml:space="preserve">
<image overflow="visible" width="1918" height="958" xlink:href="D882084C.jpg"  transform="matrix(0.6923 0 0 0.6923 0 0)">
</image>
<path fill="#4D4D4D" fill-opacity="0.3" d="M234,420H26c-6.6,0-12-5.4-12-12V44c0-6.6,5.4-12,12-12h208c6.6,0,12,5.4,12,12v364
	C246,414.6,240.6,420,234,420z"/>
<path fill="#4D4D4D" fill-opacity="0.41" d="M214,359H32c-6.6,0-12-5.4-12-12v-85c0-6.6,5.4-12,12-12h182c6.6,0,12,5.4,12,12v85
	C226,353.6,220.6,359,214,359z"/>
<path fill="#4D4D4D" fill-opacity="0.41" d="M210,355H41c-6.6,0-12-5.4-12-12v-54c0-6.6,5.4-12,12-12h169c6.6,0,12,5.4,12,12v54
	C222,349.6,216.6,355,210,355z"/>
<path fill="#4D4D4D" fill-opacity="0.41" d="M206,351H49c-6.6,0-12-5.4-12-12l0,0c0-6.6,5.4-12,12-12h157c6.6,0,12,5.4,12,12l0,0
	C218,345.6,212.6,351,206,351z"/>
<rect x="-704" y="-143" fill="#FFFFFF" width="93" height="93"/>
<path fill="#FFFFFF" d="M-504-430h-63c-6.6,0-12-5.4-12-12v-63c0-6.6,5.4-12,12-12h63c6.6,0,12,5.4,12,12v63
	C-492-435.4-497.4-430-504-430z"/>
<text transform="matrix(1 0 0 1 -567.8281 -442.875)" font-family="'MajorMonoDisplay-Regular'" font-size="86.2332px">I</text>
<text transform="matrix(1 0 0 1 -3.769 -522.2349)" font-family="'MajorMonoDisplay-Regular'" font-size="54.5918px">=*^%$#@!SKv+</text>
<path fill="#F2F2F2" fill-opacity="0.87" stroke="#4D4D4D" stroke-miterlimit="10" stroke-opacity="0.35" d="M214,62.5H32
	c-6.6,0-12-5.4-12-12v0c0-6.6,5.4-12,12-12h182c6.6,0,12,5.4,12,12v0C226,57.1,220.6,62.5,214,62.5z"/>
<text transform="matrix(1 0 0 1 28.2095 55.0111)" fill="#4D4D4D" font-family="'MajorMonoDisplay-Regular'" font-size="12px">Sketch Kit</text>
<path fill="#4D4D4D" fill-opacity="0.24" d="M247-50H65c-6.6,0-12-5.4-12-12v-5c0-6.6,5.4-12,12-12h182c6.6,0,12,5.4,12,12v5
	C259-55.4,253.6-50,247-50z"/>
<text transform="matrix(1 0 0 1 188.4799 141.5794)" fill="#4D4D4D" font-family="'MajorMonoDisplay-Regular'" font-size="10px">-2020</text>
<circle fill="#AE867D" stroke="#4D4D4D" stroke-miterlimit="10" cx="214" cy="50" r="3"/>
<circle fill="#3A6361" cx="198.5" cy="50.2" r="3.2"/>
<path fill="#4D4D4D" fill-opacity="0.41" d="M214,124H32c-6.6,0-12-5.4-12-12V82c0-6.6,5.4-12,12-12h182c6.6,0,12,5.4,12,12v30
	C226,118.6,220.6,124,214,124z"/>
<text transform="matrix(1 0 0 1 28.2095 86.5112)" fill="#F2F2F2" font-family="'MajorMonoDisplay-Regular'" font-size="12px">Sketch Kit</text>
<path fill="#4D4D4D" fill-opacity="0.41" d="M211,121H41c-6.6,0-12-5.4-12-12v0c0-6.6,5.4-12,12-12h170c6.6,0,12,5.4,12,12v0
	C223,115.6,217.6,121,211,121z"/>
<text transform="matrix(1 0 0 1 37.2095 113.5112)" fill="#F2F2F2" font-family="'MajorMonoDisplay-Regular'" font-size="12px">Sketch Kit</text>
<rect x="16" y="-419" fill="#3A6361" width="127" height="119"/>
<rect x="166" y="-419" fill="#E8ACC8" width="127" height="119"/>
<rect x="310" y="-420" fill="#36588A" width="127" height="119"/>
<rect x="453" y="-420" fill="#BC9249" width="127" height="119"/>
<rect x="593" y="-420" fill="#83838E" width="127" height="119"/>
<rect x="733" y="-420" fill="#7A3C45" width="127" height="119"/>
<rect x="870" y="-419" fill="#B86455" width="127" height="119"/>
<rect x="1007" y="-419" fill="#AE867D" width="127" height="119"/>
<path fill="#4D4D4D" d="M235,284L235,284c-1.1,0-2-0.9-2-2V43c0-1.1,0.9-2,2-2l0,0c1.1,0,2,0.9,2,2v239C237,283.1,236.1,284,235,284
	z"/>
<path fill="#4D4D4D" fill-opacity="0.41" d="M214,203H32c-6.6,0-12-5.4-12-12v-30c0-6.6,5.4-12,12-12h182c6.6,0,12,5.4,12,12v30
	C226,197.6,220.6,203,214,203z"/>
<text transform="matrix(1 0 0 1 28.2095 165.5112)" fill="#F2F2F2" font-family="'MajorMonoDisplay-Regular'" font-size="12px">Sketch Kit</text>
<path fill="#4D4D4D" fill-opacity="0.41" d="M211,200H41c-6.6,0-12-5.4-12-12v0c0-6.6,5.4-12,12-12h170c6.6,0,12,5.4,12,12v0
	C223,194.6,217.6,200,211,200z"/>
<text transform="matrix(1 0 0 1 37.2095 192.5112)" fill="#F2F2F2" font-family="'MajorMonoDisplay-Regular'" font-size="12px">Sketch Kit</text>
<text transform="matrix(1 0 0 1 188.1331 223.09)" fill="#4D4D4D" font-family="'MajorMonoDisplay-Regular'" font-size="10px">+2021</text>
<line opacity="0.39" fill="#4D4D4D" stroke="#000000" stroke-width="0.5" stroke-miterlimit="10" x1="20" y1="226" x2="223" y2="226"/>
<line opacity="0.39" fill="#4D4D4D" stroke="#000000" stroke-width="0.5" stroke-miterlimit="10" x1="22" y1="144.5" x2="225" y2="144.5"/>
<text transform="matrix(1 0 0 1 188.1331 242.59)" fill="#4D4D4D" font-family="'MajorMonoDisplay-Regular'" font-size="10px">+2022</text>
<line opacity="0.39" fill="#4D4D4D" stroke="#000000" stroke-width="0.5" stroke-miterlimit="10" x1="20" y1="246.5" x2="223" y2="246.5"/>
<circle fill="#E8ACC8" cx="212" cy="83" r="4"/>
<circle fill="#E8ACC8" cx="211" cy="109" r="4"/>
<text transform="matrix(1 0 0 1 28.2095 266.5112)" fill="#F2F2F2" font-family="'MajorMonoDisplay-Regular'" font-size="12px">Sketch Kit</text>
<text transform="matrix(1 0 0 1 37.2095 293.5112)" fill="#F2F2F2" font-family="'MajorMonoDisplay-Regular'" font-size="12px">Sketch Kit</text>
<text transform="matrix(1 0 0 1 36.6501 318.7497)" fill="#F2F2F2" font-family="'MajorMonoDisplay-Regular'" font-size="12px">Sketch Kit</text>
<text transform="matrix(1 0 0 1 45.6502 343.7499)" fill="#F2F2F2" font-family="'MajorMonoDisplay-Regular'" font-size="12px">Sketch Kit</text>
<path fill="#F2F2F2" fill-opacity="0.74" stroke="#AE867D" stroke-miterlimit="10" d="M232.5,41.5h-36c-4.4,0-8-3.6-8-8v0
	c0-4.4,3.6-8,8-8h36c4.4,0,8,3.6,8,8v0C240.5,37.9,236.9,41.5,232.5,41.5z"/>
<text transform="matrix(1 0 0 1 196.2789 36.9227)" fill="#4D4D4D" font-family="'MajorMonoDisplay-Regular'" font-size="10px">WebGL</text>
</svg>
